PathFileType	4	(X/Y/Z)	D:\Share\Shared_Data\Ergonomics\Sit To Stand Pertubation\S1\Perturbed_NoHarness.trc
DataRate	CameraRate	NumFrames	NumMarkers	Units	OrigDataRate	OrigDataStartFrame	OrigNumFrames	
100	100	13	18	m	100	3416	231
Frame#	Time	L_ASIS			R_ASIS			R_Pelvis			V_Sacral			L_Pelvis			Clavical			R_Acromium			L_Acromium			Sternum			Torso			R_Thigh_Med			R_Thigh_Lat			R_Thigh			R_Shank_Med			R_Shank_Lat			R_Shank			R_Heel			R_Toe			
		X1	Y1	Z1	X2	Y2	Z2	X3	Y3	Z3	X4	Y4	Z4	X5	Y5	Z5	X6	Y6	Z6	X7	Y7	Z7	X8	Y8	Z8	X9	Y9	Z9	X10	Y10	Z10	X11	Y11	Z11	X12	Y12	Z12	X13	Y13	Z13	X14	Y14	Z14	X15	Y15	Z15	X16	Y16	Z16	X17	Y17	Z17	X18	Y18	Z18	

3416	34.15	0.3957334	0.88196643	-0.090334061	0.30167798	0.884974	0.14724419	0.36817218	0.87488464	0.11709752	0.19950533	0.87860364	0.0040678482	0.30662463	0.8921582	-0.14258185	0.45956821	1.2132394	0.0067924924	0.40922931	1.297171	0.15378348	0.36146902	1.2591395	-0.18887367	0.44568567	1.2301472	0.10878693	0.45555682	1.2215902	-0.050427216	0.3910585	0.41137213	0.04061002	0.41579791	0.43458905	0.15970219	0.43648376	0.61511865	0.10705883	0.34757852	0.094951721	0.10327874	0.32636395	0.10050351	0.18431696	0.3709679	0.30777661	0.18859659	0.2728017	0.035099689	0.13338446	0.47804416	0.046973946	0.14867838
3417	34.16	0.39972092	0.8847627	-0.090650734	0.30571744	0.88783661	0.14749806	0.36903452	0.87876886	0.11921283	0.20412317	0.88135425	0.0036999671	0.31096716	0.89470258	-0.14267	0.45961246	1.2174098	0.0065887313	0.4083605	1.300511	0.15379414	0.36060721	1.2622278	-0.18906367	0.44563309	1.2339995	0.10868025	0.45554034	1.2256139	-0.050780849	0.38881445	0.41193869	0.041058014	0.41407977	0.43509637	0.16027599	0.43802707	0.61529486	0.10675407	0.34732047	0.095227303	0.10336366	0.32620053	0.10055854	0.18444412	0.36971442	0.30809381	0.1890536	0.27274762	0.035059246	0.13330045	0.47801044	0.04730621	0.14878719
3418	34.17	0.40362463	0.88731787	-0.090975113	0.30967236	0.89053418	0.14777084	0.36955963	0.88249811	0.12151973	0.20864302	0.88389642	0.0033012278	0.31522937	0.89701465	-0.14277773	0.45966376	1.2212736	0.0063829403	0.40752979	1.303548	0.15379767	0.35978882	1.2650327	-0.18926308	0.44560043	1.2375486	0.108563	0.45553635	1.229339	-0.051128262	0.38654074	0.41246182	0.041514225	0.41237012	0.43556104	0.16085995	0.43951093	0.61538397	0.10654054	0.34705685	0.095494247	0.10344668	0.32603717	0.10061016	0.18456677	0.36847592	0.30839648	0.18949672	0.27268805	0.034993881	0.13319727	0.4779678	0.047681873	0.14890163
3419	34.18	0.40744302	0.88963916	-0.091305916	0.31354504	0.89305707	0.14804709	0.36984781	0.88604321	0.12394154	0.21305952	0.88622931	0.0028778658	0.3193963	0.89909705	-0.1429352	0.45972229	1.2248358	0.0061735802	0.40673929	1.3062919	0.15379196	0.35901892	1.2675613	-0.18946811	0.44558655	1.2408004	0.10843413	0.45554501	1.2327709	-0.051470879	0.38425552	0.412939	0.041993549	0.41067535	0.43598053	0.16145946	0.44093384	0.61539221	0.10642207	0.34678986	0.095752129	0.10352847	0.32587381	0.1006576	0.18468488	0.36725513	0.30868347	0.18992911	0.27262515	0.034905548	0.13307722	0.4779202	0.04809166	0.14901933
3420	34.19	0.41117618	0.89173547	-0.091641975	0.31733759	0.895396	0.14831035	0.37000931	0.88937335	0.12639333	0.21736826	0.88835443	0.0024358087	0.32345535	0.90095453	-0.14316624	0.45978806	1.2281041	0.0059590635	0.40599088	1.3087545	0.15377505	0.35830109	1.2698228	-0.18967693	0.44559033	1.2437627	0.10829242	0.45556619	1.2359175	-0.051810349	0.38198117	0.41336942	0.042512241	0.4090007	0.43635406	0.1620791	0.44229385	0.61532568	0.10639788	0.34652188	0.096000969	0.10360957	0.32571069	0.10070026	0.1847984	0.36605405	0.30895413	0.19035414	0.27256125	0.034799141	0.13294496	0.47787228	0.048524094	0.14913719
3421	34.2	0.41482547	0.89361792	-0.091982239	0.32105075	0.89754297	0.14854485	0.37015491	0.89245966	0.12878958	0.22156583	0.89027496	0.0019804472	0.32739651	0.9025943	-0.14348787	0.4598609	1.2310875	0.0057378354	0.4052854	1.3109503	0.15374512	0.35763748	1.271829	-0.1898891	0.44561035	1.2464462	0.10813671	0.45559927	1.238788	-0.052148407	0.37974298	0.41375394	0.043087032	0.4073501	0.43668286	0.16272237	0.44358911	0.61519067	0.10646335	0.34625537	0.096241196	0.10369055	0.32554782	0.10073784	0.18490736	0.3648739	0.30920813	0.19077521	0.27249942	0.034682739	0.13280771	0.47782855	0.048966473	0.14925183
3422	34.21	0.41839307	0.89529865	-0.092325897	0.32468362	0.89949261	0.14873718	0.37038611	0.89527869	0.13105176	0.22564996	0.89199658	0.0015164952	0.33121225	0.90402521	-0.14391026	0.45994034	1.2337981	0.0055084519	0.40462299	1.3128948	0.15370062	0.35702887	1.2735944	-0.19010527	0.44564517	1.2488632	0.10796593	0.45564322	1.2413943	-0.052486786	0.37756793	0.41409515	0.043733959	0.40572607	0.43696985	0.1633916	0.44481845	0.61499274	0.10661083	0.34599261	0.096473694	0.10377185	0.32538531	0.10077031	0.18501176	0.36371503	0.3094458	0.19119576	0.27244272	0.034567711	0.1326754	0.4777934	0.049405979	0.14935985
3423	34.22	0.42188184	0.89679138	-0.092672409	0.3282327	0.90124329	0.14887773	0.37078714	0.89781494	0.13311478	0.22961969	0.89352747	0.0010479397	0.33489801	0.90525812	-0.14443713	0.46002567	1.2362496	0.0052696404	0.40400275	1.3146053	0.15364021	0.35647458	1.2751344	-0.19032668	0.44569333	1.2510288	0.10777916	0.45569647	1.2437496	-0.052827126	0.37548276	0.41439737	0.044467037	0.40412973	0.43721997	0.16408797	0.44598135	0.614737	0.10683062	0.34573596	0.096699677	0.10385399	0.32522308	0.100798	0.18511177	0.36257678	0.30966785	0.19161908	0.27239447	0.034468372	0.13256039	0.47777032	0.049830708	0.14945822
3424	34.23	0.42529462	0.89811029	-0.093021469	0.33169177	0.90279767	0.14896172	0.37142032	0.9000625	0.13493105	0.23347531	0.89487793	0.00057805544	0.33845193	0.90630548	-0.14506625	0.46011581	1.2384578	0.0050203624	0.403423	1.3161	0.15356282	0.35597244	1.2764661	-0.19055472	0.44575302	1.2529595	0.10757584	0.45575708	1.2458687	-0.053170914	0.37351144	0.41466614	0.045296768	0.40256094	0.43743994	0.16481139	0.44707849	0.61442847	0.10711195	0.34548737	0.096920753	0.10393752	0.32506119	0.10082163	0.18520769	0.36145764	0.30987546	0.19204826	0.27235773	0.03440136	0.13247693	0.47776184	0.050230495	0.14954457
3425	34.24	0.42863431	0.89926984	-0.093372917	0.33505194	0.9041629	0.14898964	0.37232388	0.90202545	0.13647227	0.23721835	0.89606042	0.00010947259	0.34187497	0.90718103	-0.14578992	0.4602095	1.2404397	0.0047598586	0.40288107	1.317397	0.15346761	0.35551913	1.2776063	-0.19079086	0.44582227	1.2546735	0.10735571	0.45582272	1.2477682	-0.053519352	0.37167316	0.41490851	0.046228745	0.40101834	0.43763757	0.16556093	0.4481113	0.61407202	0.10744392	0.34524854	0.097138695	0.10402307	0.32489944	0.10084226	0.18529997	0.36035553	0.3100701	0.19248611	0.27233511	0.034384594	0.13244025	0.47776929	0.050597427	0.14961736
3426	34.25	0.43190356	0.90028461	-0.093726585	0.33830219	0.9053504	0.1489669	0.3735134	0.90371667	0.1377287	0.24085155	0.89708893	-0.00035573542	0.34517084	0.90789954	-0.14659576	0.46030511	1.2422134	0.0044877009	0.40237354	1.318515	0.15335405	0.35511032	1.278573	-0.19103624	0.44589886	1.2561895	0.10711899	0.45589096	1.2494648	-0.05387339	0.36998053	0.41513199	0.047262493	0.39949969	0.43782144	0.16633499	0.44908191	0.61367316	0.10781626	0.34502078	0.097355461	0.10411133	0.32473758	0.10086124	0.18538927	0.35926749	0.31025351	0.19293497	0.27232886	0.034435894	0.13246545	0.47779266	0.050926086	0.14967601
3427	34.26	0.43510477	0.90116864	-0.094082016	0.3414303	0.90637524	0.14890327	0.37498529	0.90515643	0.13870644	0.24437872	0.89797888	-0.00081595641	0.34834583	0.90847681	-0.1474671	0.46040109	1.2437974	0.0042038236	0.40189627	1.3194718	0.15322183	0.35474057	1.2793829	-0.19129181	0.44598038	1.2575266	0.10686629	0.45595889	1.2509762	-0.054233589	0.36843839	0.41534473	0.048390881	0.39800192	0.43800037	0.16713152	0.44999298	0.61323724	0.10821996	0.34480502	0.097573021	0.10420305	0.32457538	0.1008801	0.18547635	0.35819022	0.31042767	0.19339674	0.27234027	0.034571453	0.13256619	0.47783087	0.051213348	0.14972076
3428	34.27	0.43823993	0.90193555	-0.094438278	0.34442426	0.90725488	0.14881133	0.37672122	0.90636945	0.1394238	0.2478045	0.89874622	-0.0012699572	0.3514086	0.90892859	-0.14838406	0.46049548	1.2452103	0.0039085584	0.40144473	1.3202844	0.15307103	0.35440384	1.2800524	-0.19155823	0.44606406	1.258704	0.10659869	0.45602386	1.2523199	-0.054600147	0.3670433	0.41555469	0.049600136	0.39652161	0.43818256	0.16794827	0.45084729	0.61277051	0.10864759	0.34460193	0.097793205	0.10429902	0.32441238	0.10090046	0.18556215	0.35712015	0.31059464	0.19387282	0.27237009	0.034804157	0.13275323	0.47788174	0.051457985	0.14975256
